<?xml version="1.0" encoding="UTF-8" standalone="no"?>
<!DOCTYPE svg PUBLIC "-//W3C//DTD SVG 1.1//EN" "http://www.w3.org/Graphics/SVG/1.1/DTD/svg11.dtd">
<svg width="100%" height="100%" viewBox="0 0 700 700" version="1.1" xmlns="http://www.w3.org/2000/svg" xmlns:xlink="http://www.w3.org/1999/xlink" xml:space="preserve" xmlns:serif="http://www.serif.com/" style="fill-rule:evenodd;clip-rule:evenodd;stroke-linejoin:round;stroke-miterlimit:2;fill:#D8B4FE;">
    <g transform="matrix(1,0,0,1,-4.22742,66.6559)">
        <path d="M589.4,444.15L484.4,339.15C480.99,335.759 475.478,335.759 472.064,339.15L447.126,363.74L416.149,332.502L476.087,272.65C503.286,272.646 529.372,261.853 548.626,242.638C552.021,239.228 552.021,233.712 548.626,230.302L482.649,164.415L494.024,153.04C497.864,155.036 502.126,156.087 506.45,156.102C514.634,156.005 522.36,152.337 527.61,146.055C532.856,139.778 535.094,131.52 533.735,123.45C532.376,115.384 527.555,108.313 520.54,104.098C513.528,99.888 505.02,98.954 497.259,101.544C489.501,104.134 483.259,109.985 480.181,117.567C477.103,125.149 477.494,133.696 481.251,140.962L470.313,152.251L409.063,91.001C407.419,89.345 405.184,88.411 402.852,88.411C400.517,88.411 398.282,89.345 396.638,91.001C378.333,109.415 367.7,134.087 366.888,160.04L317.536,209.392L304.763,221.376L273.876,190.489L298.638,165.727C300.274,164.074 301.188,161.84 301.177,159.512C301.165,157.219 300.255,155.016 298.638,153.387L193.638,48.387C191.997,46.731 189.759,45.801 187.427,45.801C185.095,45.801 182.856,46.731 181.212,48.387L119.177,110.075C117.56,111.704 116.65,113.907 116.638,116.2C116.626,118.528 117.54,120.762 119.177,122.415L224.177,227.415C225.817,229.071 228.056,230.001 230.388,230.001C232.72,230.001 234.958,229.071 236.603,227.415L261.279,202.653L292.256,233.63L237.826,288.751L207.463,319.114C189.35,339.325 182.916,367.442 190.447,393.516C197.974,419.594 218.4,439.957 244.502,447.403C270.604,454.848 298.697,448.329 318.854,430.149L403.815,345.188L434.702,376.25L410.026,401.012C406.635,404.426 406.635,409.938 410.026,413.352L515.026,518.352C516.658,519.965 518.858,520.879 521.151,520.887C523.479,520.903 525.713,519.989 527.365,518.352L589.228,456.403L589.228,456.399C592.611,453.047 592.689,447.602 589.4,444.149L589.4,444.15ZM498.752,121.1C500.705,119.151 503.346,118.053 506.104,118.037C508.885,118.049 511.553,119.147 513.541,121.1C515.479,123.057 516.576,125.694 516.604,128.448C516.58,131.229 515.482,133.897 513.541,135.885C509.428,139.897 502.865,139.897 498.752,135.885C496.779,133.932 495.67,131.268 495.67,128.491C495.67,125.717 496.779,123.053 498.752,121.1L498.752,121.1ZM187.252,66.76L205.803,85.311L156.276,134.749L137.729,116.198L187.252,66.76ZM231.002,209.03L169.139,147.167L218.662,97.644L280.002,159.507L255.24,184.269L231.002,209.03ZM343.002,381.23L256.377,294.605L323.752,227.492L410.377,314.117L343.002,381.23ZM398.479,241.23C413.534,256.363 432.702,266.738 453.604,271.066L422.366,301.867L335.741,215.242L368.116,182.867C372.1,204.816 382.694,225.027 398.479,240.793L398.479,241.23ZM402.768,109.98L529.728,236.24C512.466,249.717 490.853,256.369 469.005,254.935C447.153,253.497 426.599,244.072 411.251,228.451C395.407,213.189 385.751,192.611 384.134,170.67C382.521,148.729 389.06,126.959 402.501,109.541L402.768,109.98ZM219.808,417.72C210.843,408.7 204.906,397.118 202.82,384.575C200.734,372.032 202.605,359.149 208.172,347.72L290.07,429.532C278.59,435.134 265.644,437.009 253.043,434.891C240.445,432.774 228.824,426.77 219.809,417.719L219.808,417.72ZM306.433,417.72C305.91,418.333 305.296,418.771 304.769,419.294L218.234,332.493C218.804,331.95 219.328,331.368 219.808,330.743L244.046,306.595L330.581,393.743L306.433,417.72ZM478.023,357.521L539.972,419.384L490.449,468.907L428.761,407.044L478.023,357.521ZM521.335,499.791L502.784,481.24L552.307,431.802L570.858,450.353L521.335,499.791Z" style="fill-rule:nonzero;"/>
    </g>
</svg>
